# Blender v2.76 (sub 0) OBJ File: ''
# www.blender.org
o omd_logo_Mesh
v 0.181375 0.000000 -0.003877
v 0.181134 0.000000 -0.000262
v 0.180433 0.000000 0.003004
v 0.179306 0.000000 0.005926
v 0.177786 0.000000 0.008512
v 0.175907 0.000000 0.010768
v 0.173702 0.000000 0.012701
v 0.171205 0.000000 0.014319
v 0.168449 0.000000 0.015626
v 0.165468 0.000000 0.016632
v 0.162295 0.000000 0.017342
v 0.158964 0.000000 0.017762
v 0.155508 0.000000 0.017901
v 0.155401 0.000000 0.017901
v 0.155096 0.000000 0.017901
v 0.154623 0.000000 0.017901
v 0.154009 0.000000 0.017901
v 0.153283 0.000000 0.017901
v 0.152473 0.000000 0.017901
v 0.151607 0.000000 0.017901
v 0.150712 0.000000 0.017901
v 0.149817 0.000000 0.017901
v 0.148951 0.000000 0.017901
v 0.148140 0.000000 0.017901
v 0.147414 0.000000 0.017901
v 0.147414 0.000000 -0.025969
v 0.155390 0.000000 -0.025969
v 0.158873 0.000000 -0.025830
v 0.162226 0.000000 -0.025408
v 0.165418 0.000000 -0.024697
v 0.168414 0.000000 -0.023690
v 0.171181 0.000000 -0.022380
v 0.173687 0.000000 -0.020761
v 0.175898 0.000000 -0.018826
v 0.177782 0.000000 -0.016567
v 0.179304 0.000000 -0.013979
v 0.180433 0.000000 -0.011055
v 0.181134 0.000000 -0.007787
v 0.181375 0.000000 -0.004170
v 0.181375 0.000000 -0.004164
v 0.181375 0.000000 -0.004148
v 0.181375 0.000000 -0.004124
v 0.181375 0.000000 -0.004094
v 0.181375 0.000000 -0.004060
v 0.181375 0.000000 -0.004024
v 0.181375 0.000000 -0.003987
v 0.181375 0.000000 -0.003953
v 0.181375 0.000000 -0.003923
v 0.181375 0.000000 -0.003899
v 0.181375 0.000000 -0.003883
v -0.103869 0.000000 -0.040677
v -0.104094 0.000000 -0.036487
v -0.104769 0.000000 -0.032394
v -0.105890 0.000000 -0.028449
v -0.107453 0.000000 -0.024702
v -0.109456 0.000000 -0.021205
v -0.111894 0.000000 -0.018009
v -0.114764 0.000000 -0.015165
v -0.118063 0.000000 -0.012723
v -0.121788 0.000000 -0.010735
v -0.125935 0.000000 -0.009252
v -0.130501 0.000000 -0.008325
v -0.135482 0.000000 -0.008005
v -0.140529 0.000000 -0.008324
v -0.145167 0.000000 -0.009251
v -0.149390 0.000000 -0.010735
v -0.153194 0.000000 -0.012729
v -0.156572 0.000000 -0.015183
v -0.159518 0.000000 -0.018049
v -0.162027 0.000000 -0.021277
v -0.164092 0.000000 -0.024819
v -0.165709 0.000000 -0.028627
v -0.166871 0.000000 -0.032650
v -0.167572 0.000000 -0.036841
v -0.167807 0.000000 -0.041150
v -0.167807 0.000000 -0.041156
v -0.167807 0.000000 -0.041174
v -0.167807 0.000000 -0.041202
v -0.167807 0.000000 -0.041238
v -0.167807 0.000000 -0.041281
v -0.167807 0.000000 -0.041329
v -0.167807 0.000000 -0.041380
v -0.167807 0.000000 -0.041433
v -0.167807 0.000000 -0.041486
v -0.167807 0.000000 -0.041537
v -0.167807 0.000000 -0.041585
v -0.167807 0.000000 -0.041627
v -0.167574 0.000000 -0.045826
v -0.166879 0.000000 -0.049945
v -0.165728 0.000000 -0.053928
v -0.164124 0.000000 -0.057723
v -0.162075 0.000000 -0.061274
v -0.159584 0.000000 -0.064528
v -0.156658 0.000000 -0.067431
v -0.153302 0.000000 -0.069927
v -0.149520 0.000000 -0.071963
v -0.145318 0.000000 -0.073484
v -0.140702 0.000000 -0.074437
v -0.135676 0.000000 -0.074767
v -0.130673 0.000000 -0.074442
v -0.126084 0.000000 -0.073500
v -0.121915 0.000000 -0.071991
v -0.118168 0.000000 -0.069965
v -0.114848 0.000000 -0.067473
v -0.111958 0.000000 -0.064564
v -0.109502 0.000000 -0.061287
v -0.107484 0.000000 -0.057694
v -0.105908 0.000000 -0.053833
v -0.104778 0.000000 -0.049756
v -0.104097 0.000000 -0.045511
v -0.103869 0.000000 -0.041150
v -0.103869 0.000000 -0.041140
v -0.103869 0.000000 -0.041115
v -0.103869 0.000000 -0.041076
v -0.103869 0.000000 -0.041027
v -0.103869 0.000000 -0.040972
v -0.103869 0.000000 -0.040913
v -0.103869 0.000000 -0.040855
v -0.103869 0.000000 -0.040800
v -0.103869 0.000000 -0.040751
v -0.103869 0.000000 -0.040712
v -0.103869 0.000000 -0.040686
v 0.223493 0.000000 -0.005236
v 0.222986 0.000000 -0.013026
v 0.221468 0.000000 -0.020605
v 0.218946 0.000000 -0.027884
v 0.215425 0.000000 -0.034774
v 0.210910 0.000000 -0.041187
v 0.205408 0.000000 -0.047032
v 0.198922 0.000000 -0.052223
v 0.191460 0.000000 -0.056669
v 0.183027 0.000000 -0.060281
v 0.173628 0.000000 -0.062972
v 0.163269 0.000000 -0.064651
v 0.151956 0.000000 -0.065231
v 0.151324 0.000000 -0.065231
v 0.149539 0.000000 -0.065231
v 0.146765 0.000000 -0.065231
v 0.143167 0.000000 -0.065231
v 0.138910 0.000000 -0.065231
v 0.134159 0.000000 -0.065231
v 0.129078 0.000000 -0.065231
v 0.123832 0.000000 -0.065231
v 0.118586 0.000000 -0.065231
v 0.113505 0.000000 -0.065231
v 0.108754 0.000000 -0.065231
v 0.104497 0.000000 -0.065231
v 0.104497 0.000000 -0.008733
v 0.042557 0.000000 -0.008733
v 0.017487 0.000000 0.037360
v -0.008741 0.000000 -0.008733
v -0.041563 0.000000 -0.008733
v -0.040673 0.000000 -0.011330
v -0.039860 0.000000 -0.013948
v -0.039123 0.000000 -0.016587
v -0.038462 0.000000 -0.019246
v -0.037878 0.000000 -0.021925
v -0.037372 0.000000 -0.024622
v -0.036942 0.000000 -0.027336
v -0.036590 0.000000 -0.030068
v -0.036316 0.000000 -0.032816
v -0.036120 0.000000 -0.035579
v -0.036002 0.000000 -0.038358
v -0.035963 0.000000 -0.041150
v -0.035963 0.000000 -0.041156
v -0.035963 0.000000 -0.041174
v -0.035963 0.000000 -0.041202
v -0.035963 0.000000 -0.041238
v -0.035963 0.000000 -0.041281
v -0.035963 0.000000 -0.041329
v -0.035963 0.000000 -0.041380
v -0.035963 0.000000 -0.041433
v -0.035963 0.000000 -0.041486
v -0.035963 0.000000 -0.041537
v -0.035963 0.000000 -0.041585
v -0.035963 0.000000 -0.041627
v -0.036172 0.000000 -0.048099
v -0.036797 0.000000 -0.054478
v -0.037831 0.000000 -0.060751
v -0.039267 0.000000 -0.066900
v -0.041098 0.000000 -0.072911
v -0.043319 0.000000 -0.078769
v -0.045923 0.000000 -0.084457
v -0.048903 0.000000 -0.089961
v -0.052253 0.000000 -0.095264
v -0.055967 0.000000 -0.100352
v -0.060037 0.000000 -0.105209
v -0.064459 0.000000 -0.109819
v -0.069221 0.000000 -0.114161
v -0.074247 0.000000 -0.118160
v -0.079522 0.000000 -0.121807
v -0.085028 0.000000 -0.125098
v -0.090750 0.000000 -0.128025
v -0.096671 0.000000 -0.130583
v -0.102775 0.000000 -0.132764
v -0.109047 0.000000 -0.134564
v -0.115470 0.000000 -0.135974
v -0.122027 0.000000 -0.136989
v -0.128703 0.000000 -0.137603
v -0.135482 0.000000 -0.137809
v -0.142262 0.000000 -0.137601
v -0.148944 0.000000 -0.136982
v -0.155510 0.000000 -0.135958
v -0.161944 0.000000 -0.134536
v -0.168232 0.000000 -0.132721
v -0.174355 0.000000 -0.130521
v -0.180298 0.000000 -0.127942
v -0.186045 0.000000 -0.124990
v -0.191579 0.000000 -0.121672
v -0.196884 0.000000 -0.117994
v -0.201945 0.000000 -0.113962
v -0.206744 0.000000 -0.109583
v -0.208969 0.000000 -0.107341
v -0.211111 0.000000 -0.105037
v -0.213170 0.000000 -0.102671
v -0.215145 0.000000 -0.100246
v -0.217036 0.000000 -0.097761
v -0.218841 0.000000 -0.095218
v -0.220560 0.000000 -0.092619
v -0.222193 0.000000 -0.089963
v -0.223738 0.000000 -0.087253
v -0.225195 0.000000 -0.084488
v -0.226563 0.000000 -0.081671
v -0.227842 0.000000 -0.078802
v -0.229056 0.000000 -0.075816
v -0.230166 0.000000 -0.072799
v -0.231171 0.000000 -0.069751
v -0.232072 0.000000 -0.066674
v -0.232868 0.000000 -0.063569
v -0.233558 0.000000 -0.060437
v -0.234143 0.000000 -0.057280
v -0.234622 0.000000 -0.054098
v -0.234995 0.000000 -0.050893
v -0.235262 0.000000 -0.047666
v -0.235422 0.000000 -0.044417
v -0.235475 0.000000 -0.041150
v -0.235475 0.000000 -0.041143
v -0.235475 0.000000 -0.041126
v -0.235475 0.000000 -0.041098
v -0.235475 0.000000 -0.041062
v -0.235475 0.000000 -0.041020
v -0.235475 0.000000 -0.040973
v -0.235475 0.000000 -0.040922
v -0.235475 0.000000 -0.040870
v -0.235475 0.000000 -0.040817
v -0.235475 0.000000 -0.040767
v -0.235475 0.000000 -0.040720
v -0.235475 0.000000 -0.040677
v -0.235266 0.000000 -0.034206
v -0.234641 0.000000 -0.027826
v -0.233607 0.000000 -0.021554
v -0.232172 0.000000 -0.015404
v -0.230341 0.000000 -0.009393
v -0.228120 0.000000 -0.003535
v -0.225517 0.000000 0.002153
v -0.222537 0.000000 0.007657
v -0.219187 0.000000 0.012960
v -0.215474 0.000000 0.018048
v -0.211403 0.000000 0.022905
v -0.206982 0.000000 0.027515
v -0.202214 0.000000 0.031857
v -0.197172 0.000000 0.035855
v -0.191874 0.000000 0.039502
v -0.186340 0.000000 0.042792
v -0.180585 0.000000 0.045719
v -0.174630 0.000000 0.048276
v -0.168491 0.000000 0.050457
v -0.162186 0.000000 0.052256
v -0.155735 0.000000 0.053666
v -0.149154 0.000000 0.054681
v -0.142462 0.000000 0.055295
v -0.135676 0.000000 0.055501
v -0.129640 0.000000 0.055336
v -0.123689 0.000000 0.054843
v -0.117833 0.000000 0.054028
v -0.112083 0.000000 0.052895
v -0.106448 0.000000 0.051449
v -0.100938 0.000000 0.049695
v -0.095564 0.000000 0.047636
v -0.090335 0.000000 0.045278
v -0.085261 0.000000 0.042626
v -0.080352 0.000000 0.039683
v -0.075619 0.000000 0.036455
v -0.071070 0.000000 0.032947
v -0.071070 0.000000 0.034445
v -0.071070 0.000000 0.038680
v -0.071070 0.000000 0.045261
v -0.071070 0.000000 0.053796
v -0.071070 0.000000 0.063895
v -0.071070 0.000000 0.075167
v -0.071070 0.000000 0.087220
v -0.071070 0.000000 0.099665
v -0.071070 0.000000 0.112109
v -0.071070 0.000000 0.124162
v -0.071070 0.000000 0.135434
v -0.071070 0.000000 0.145533
v -0.016524 0.000000 0.145533
v -0.016524 0.000000 0.082231
v 0.017487 0.000000 0.130769
v 0.050333 0.000000 0.082231
v 0.050333 0.000000 0.145533
v 0.104889 0.000000 0.145533
v 0.104889 0.000000 0.058380
v 0.150545 0.000000 0.058380
v 0.161958 0.000000 0.057841
v 0.172444 0.000000 0.056265
v 0.181991 0.000000 0.053710
v 0.190586 0.000000 0.050237
v 0.198217 0.000000 0.045905
v 0.204871 0.000000 0.040774
v 0.210536 0.000000 0.034903
v 0.215199 0.000000 0.028353
v 0.218847 0.000000 0.021182
v 0.221469 0.000000 0.013450
v 0.223051 0.000000 0.005216
v 0.223582 0.000000 -0.003458
v 0.223580 0.000000 -0.003493
v 0.223575 0.000000 -0.003590
v 0.223568 0.000000 -0.003736
v 0.223558 0.000000 -0.003919
v 0.223548 0.000000 -0.004127
v 0.223537 0.000000 -0.004347
v 0.223526 0.000000 -0.004567
v 0.223516 0.000000 -0.004775
v 0.223506 0.000000 -0.004958
v 0.223499 0.000000 -0.005104
v 0.223494 0.000000 -0.005201
vn 0.000000 1.000000 0.000000
s off
f 201//1 199//1 200//1
f 201//1 198//1 199//1
f 202//1 198//1 201//1
f 202//1 197//1 198//1
f 203//1 197//1 202//1
f 203//1 196//1 197//1
f 204//1 196//1 203//1
f 204//1 195//1 196//1
f 205//1 195//1 204//1
f 205//1 194//1 195//1
f 206//1 194//1 205//1
f 206//1 193//1 194//1
f 207//1 193//1 206//1
f 207//1 192//1 193//1
f 208//1 192//1 207//1
f 208//1 191//1 192//1
f 209//1 191//1 208//1
f 209//1 190//1 191//1
f 210//1 190//1 209//1
f 210//1 189//1 190//1
f 211//1 189//1 210//1
f 211//1 188//1 189//1
f 212//1 188//1 211//1
f 212//1 187//1 188//1
f 213//1 187//1 212//1
f 214//1 187//1 213//1
f 214//1 186//1 187//1
f 215//1 186//1 214//1
f 216//1 186//1 215//1
f 216//1 185//1 186//1
f 217//1 185//1 216//1
f 218//1 185//1 217//1
f 218//1 184//1 185//1
f 219//1 184//1 218//1
f 220//1 184//1 219//1
f 221//1 184//1 220//1
f 221//1 183//1 184//1
f 222//1 183//1 221//1
f 223//1 183//1 222//1
f 223//1 182//1 183//1
f 224//1 182//1 223//1
f 225//1 182//1 224//1
f 225//1 99//1 182//1
f 99//1 181//1 182//1
f 226//1 99//1 225//1
f 226//1 98//1 99//1
f 100//1 181//1 99//1
f 101//1 181//1 100//1
f 226//1 97//1 98//1
f 102//1 181//1 101//1
f 226//1 96//1 97//1
f 102//1 180//1 181//1
f 227//1 96//1 226//1
f 103//1 180//1 102//1
f 227//1 95//1 96//1
f 104//1 180//1 103//1
f 227//1 94//1 95//1
f 228//1 94//1 227//1
f 105//1 180//1 104//1
f 228//1 93//1 94//1
f 105//1 179//1 180//1
f 229//1 93//1 228//1
f 148//1 146//1 147//1
f 148//1 145//1 146//1
f 148//1 144//1 145//1
f 148//1 143//1 144//1
f 148//1 142//1 143//1
f 148//1 141//1 142//1
f 148//1 140//1 141//1
f 148//1 139//1 140//1
f 148//1 138//1 139//1
f 148//1 137//1 138//1
f 148//1 136//1 137//1
f 148//1 135//1 136//1
f 148//1 134//1 135//1
f 148//1 133//1 134//1
f 106//1 179//1 105//1
f 229//1 92//1 93//1
f 230//1 92//1 229//1
f 148//1 132//1 133//1
f 107//1 179//1 106//1
f 230//1 91//1 92//1
f 107//1 178//1 179//1
f 231//1 91//1 230//1
f 148//1 131//1 132//1
f 231//1 90//1 91//1
f 108//1 178//1 107//1
f 232//1 90//1 231//1
f 148//1 130//1 131//1
f 108//1 177//1 178//1
f 233//1 90//1 232//1
f 233//1 89//1 90//1
f 109//1 177//1 108//1
f 148//1 26//1 130//1
f 26//1 129//1 130//1
f 234//1 89//1 233//1
f 234//1 88//1 89//1
f 110//1 177//1 109//1
f 110//1 176//1 177//1
f 235//1 88//1 234//1
f 26//1 128//1 129//1
f 235//1 87//1 88//1
f 111//1 176//1 110//1
f 236//1 87//1 235//1
f 236//1 86//1 87//1
f 111//1 175//1 176//1
f 236//1 85//1 86//1
f 111//1 174//1 175//1
f 236//1 84//1 85//1
f 111//1 173//1 174//1
f 236//1 83//1 84//1
f 111//1 172//1 173//1
f 236//1 82//1 83//1
f 111//1 171//1 172//1
f 236//1 81//1 82//1
f 111//1 170//1 171//1
f 236//1 80//1 81//1
f 111//1 169//1 170//1
f 236//1 79//1 80//1
f 111//1 168//1 169//1
f 236//1 78//1 79//1
f 111//1 167//1 168//1
f 236//1 77//1 78//1
f 111//1 166//1 167//1
f 26//1 127//1 128//1
f 236//1 76//1 77//1
f 111//1 165//1 166//1
f 236//1 75//1 76//1
f 111//1 164//1 165//1
f 237//1 75//1 236//1
f 237//1 74//1 75//1
f 112//1 164//1 111//1
f 112//1 163//1 164//1
f 238//1 74//1 237//1
f 113//1 163//1 112//1
f 239//1 74//1 238//1
f 114//1 163//1 113//1
f 240//1 74//1 239//1
f 115//1 163//1 114//1
f 241//1 74//1 240//1
f 116//1 163//1 115//1
f 242//1 74//1 241//1
f 243//1 74//1 242//1
f 117//1 163//1 116//1
f 244//1 74//1 243//1
f 118//1 163//1 117//1
f 245//1 74//1 244//1
f 119//1 163//1 118//1
f 246//1 74//1 245//1
f 120//1 163//1 119//1
f 247//1 74//1 246//1
f 121//1 163//1 120//1
f 248//1 74//1 247//1
f 122//1 163//1 121//1
f 51//1 163//1 122//1
f 249//1 74//1 248//1
f 52//1 163//1 51//1
f 52//1 162//1 163//1
f 249//1 73//1 74//1
f 53//1 162//1 52//1
f 53//1 161//1 162//1
f 26//1 126//1 127//1
f 250//1 73//1 249//1
f 53//1 160//1 161//1
f 250//1 72//1 73//1
f 54//1 160//1 53//1
f 54//1 159//1 160//1
f 250//1 71//1 72//1
f 55//1 159//1 54//1
f 26//1 27//1 126//1
f 27//1 28//1 126//1
f 28//1 125//1 126//1
f 251//1 71//1 250//1
f 55//1 158//1 159//1
f 148//1 25//1 26//1
f 29//1 125//1 28//1
f 30//1 125//1 29//1
f 251//1 70//1 71//1
f 56//1 158//1 55//1
f 31//1 125//1 30//1
f 56//1 157//1 158//1
f 32//1 125//1 31//1
f 33//1 125//1 32//1
f 56//1 156//1 157//1
f 252//1 70//1 251//1
f 252//1 69//1 70//1
f 57//1 156//1 56//1
f 34//1 125//1 33//1
f 34//1 124//1 125//1
f 57//1 155//1 156//1
f 35//1 124//1 34//1
f 252//1 68//1 69//1
f 58//1 155//1 57//1
f 58//1 154//1 155//1
f 36//1 124//1 35//1
f 253//1 68//1 252//1
f 253//1 67//1 68//1
f 59//1 154//1 58//1
f 37//1 124//1 36//1
f 59//1 153//1 154//1
f 37//1 123//1 124//1
f 253//1 66//1 67//1
f 60//1 153//1 59//1
f 60//1 152//1 153//1
f 38//1 123//1 37//1
f 253//1 65//1 66//1
f 61//1 152//1 60//1
f 254//1 65//1 253//1
f 62//1 152//1 61//1
f 254//1 64//1 65//1
f 62//1 151//1 152//1
f 62//1 150//1 151//1
f 150//1 148//1 149//1
f 150//1 25//1 148//1
f 63//1 150//1 62//1
f 254//1 63//1 64//1
f 254//1 150//1 63//1
f 39//1 123//1 38//1
f 39//1 327//1 123//1
f 39//1 326//1 327//1
f 39//1 325//1 326//1
f 39//1 324//1 325//1
f 39//1 323//1 324//1
f 39//1 322//1 323//1
f 39//1 321//1 322//1
f 40//1 321//1 39//1
f 41//1 321//1 40//1
f 42//1 321//1 41//1
f 42//1 320//1 321//1
f 43//1 320//1 42//1
f 44//1 320//1 43//1
f 45//1 320//1 44//1
f 46//1 320//1 45//1
f 47//1 320//1 46//1
f 48//1 320//1 47//1
f 49//1 320//1 48//1
f 49//1 319//1 320//1
f 50//1 319//1 49//1
f 1//1 319//1 50//1
f 2//1 319//1 1//1
f 2//1 318//1 319//1
f 2//1 317//1 318//1
f 255//1 150//1 254//1
f 2//1 316//1 317//1
f 2//1 315//1 316//1
f 3//1 315//1 2//1
f 256//1 150//1 255//1
f 4//1 315//1 3//1
f 4//1 314//1 315//1
f 5//1 314//1 4//1
f 257//1 150//1 256//1
f 6//1 314//1 5//1
f 7//1 314//1 6//1
f 8//1 314//1 7//1
f 258//1 150//1 257//1
f 8//1 313//1 314//1
f 9//1 313//1 8//1
f 10//1 313//1 9//1
f 11//1 313//1 10//1
f 12//1 313//1 11//1
f 13//1 313//1 12//1
f 150//1 24//1 25//1
f 150//1 23//1 24//1
f 150//1 22//1 23//1
f 150//1 21//1 22//1
f 150//1 20//1 21//1
f 150//1 19//1 20//1
f 150//1 18//1 19//1
f 150//1 17//1 18//1
f 150//1 16//1 17//1
f 150//1 15//1 16//1
f 150//1 14//1 15//1
f 150//1 13//1 14//1
f 150//1 313//1 13//1
f 259//1 150//1 258//1
f 150//1 312//1 313//1
f 260//1 284//1 259//1
f 284//1 150//1 259//1
f 261//1 284//1 260//1
f 150//1 311//1 312//1
f 262//1 284//1 261//1
f 262//1 283//1 284//1
f 285//1 150//1 284//1
f 286//1 150//1 285//1
f 150//1 310//1 311//1
f 263//1 283//1 262//1
f 263//1 282//1 283//1
f 286//1 310//1 150//1
f 287//1 310//1 286//1
f 264//1 282//1 263//1
f 264//1 281//1 282//1
f 287//1 309//1 310//1
f 264//1 280//1 281//1
f 265//1 280//1 264//1
f 288//1 309//1 287//1
f 265//1 279//1 280//1
f 266//1 279//1 265//1
f 288//1 308//1 309//1
f 266//1 278//1 279//1
f 267//1 278//1 266//1
f 267//1 277//1 278//1
f 288//1 307//1 308//1
f 268//1 277//1 267//1
f 268//1 276//1 277//1
f 269//1 276//1 268//1
f 269//1 275//1 276//1
f 270//1 275//1 269//1
f 288//1 306//1 307//1
f 289//1 303//1 288//1
f 303//1 306//1 288//1
f 270//1 274//1 275//1
f 271//1 274//1 270//1
f 271//1 273//1 274//1
f 272//1 273//1 271//1
f 303//1 305//1 306//1
f 303//1 304//1 305//1
f 289//1 300//1 303//1
f 300//1 302//1 303//1
f 290//1 300//1 289//1
f 291//1 298//1 290//1
f 298//1 300//1 290//1
f 291//1 297//1 298//1
f 299//1 300//1 298//1
f 301//1 302//1 300//1
f 292//1 297//1 291//1
f 293//1 297//1 292//1
f 294//1 297//1 293//1
f 295//1 297//1 294//1
f 296//1 297//1 295//1
